/vscmnt/brussel_pixiu_data/_data_brussel/112/vsc11236/PredSimResults/SUBJ04mtu3D/worker2.mot
version=1
nRows=4
nColumns=50
inDegrees=yes
endheader
                time	         pelvis_tilt	         pelvis_list	     pelvis_rotation	           pelvis_tx	           pelvis_ty	           pelvis_tz	       hip_flexion_r	     hip_adduction_r	      hip_rotation_r	        knee_angle_r	       ankle_angle_r	         mtp_angle_r	       hip_flexion_l	     hip_adduction_l	      hip_rotation_l	        knee_angle_l	       ankle_angle_l	         mtp_angle_l	    lumbar_extension	      lumbar_bending	     lumbar_rotation	 ercspn_r/activation	 intobl_r/activation	 extobl_r/activation	    abd_r/activation	    add_r/activation	hamstrings_r/activation	bifemsh_r/activation	glut_max_r/activation	iliopsoas_r/activation	rect_fem_r/activation	  vasti_r/activation	gastroc_r/activation	 soleus_r/activation	tib_ant_r/activation	 ercspn_l/activation	 intobl_l/activation	 extobl_l/activation	    abd_l/activation	    add_l/activation	hamstrings_l/activation	bifemsh_l/activation	glut_max_l/activation	iliopsoas_l/activation	rect_fem_l/activation	  vasti_l/activation	gastroc_l/activation	 soleus_l/activation	tib_ant_l/activation	
          1.99182805	         -2.53244025	         -0.76631134	         -7.39957777	          1.87231837	          0.88105287	          0.01099105	        -12.58938885	         -0.22506297	         -9.07719645	         -8.53152312	         11.38398970	         23.56084985	         29.48112032	         -3.56361485	         -8.82421413	        -10.99098617	          4.93275435	          0.23540931	        -13.91874057	          3.63909143	          6.56689504	          0.03553532	          0.00999999	          0.00999999	          0.04897157	          0.00999999	          0.02040000	          0.17070565	          0.01491607	          0.01221313	          0.00999999	          0.00999999	          0.31857507	          0.23122568	          0.00999999	          0.03363699	          0.22869287	          0.02126189	          0.01085259	          0.29435822	          0.06861896	          0.05364722	          0.03105300	          0.14402068	          0.02227194	          0.01887993	          0.00999999	          0.01511538	          0.31794740	
          2.00510690	         -2.60284816	         -0.76400904	         -7.16011003	          1.88829684	          0.87888061	          0.01043331	        -13.28740980	         -0.34638133	         -9.74014988	         -9.12578129	         10.98554191	         24.97422752	         29.35093782	         -3.44561689	         -8.93040449	        -12.45696995	          4.70491430	          0.22346170	        -13.43022519	          3.02462116	          6.63179973	          0.03795523	          0.00999999	          0.00999999	          0.04009744	          0.00999999	          0.01670332	          0.13977209	          0.01221313	          0.00999999	          0.00999999	          0.00999999	          0.29504424	          0.22315606	          0.00999999	          0.02754163	          0.23130708	          0.01740902	          0.02340473	          0.24101760	          0.06731655	          0.04392581	          0.05582793	          0.11792271	          0.01823604	          0.01545870	          0.01221313	          0.01237632	          0.34668112	
          2.01838576	         -2.65822950	         -0.69931618	         -6.87162692	          1.90458324	          0.87695539	          0.00978954	        -13.88210191	         -0.55000867	        -10.43560752	         -9.96331444	         10.49108431	         26.42277839	         29.15702110	         -3.29258904	         -9.06407400	        -13.78690918	          4.24598542	          0.21679899	        -12.91651557	          2.31883175	          6.67097574	          0.04399543	          0.00999999	          0.00999999	          0.03283139	          0.00999999	          0.01367651	          0.11444401	          0.00999999	          0.01821721	          0.00999999	          0.00999999	          0.24461902	          0.20734783	          0.00999999	          0.02355128	          0.18939195	          0.01425434	          0.04444678	          0.22481510	          0.07027224	          0.03596602	          0.04571136	          0.09655394	          0.01493149	          0.07516826	          0.00999999	          0.01013361	          0.37625240	
          2.03166461	         -2.69948562	         -0.59092312	         -6.53443359	          1.92103150	          0.87545777	          0.00903588	        -14.31148566	         -0.82808294	        -11.16526341	        -11.13479839	          9.86414543	         27.88847724	         28.90072360	         -3.10233194	         -9.28953587	        -15.01128705	          3.76140351	          0.19451978	        -12.40081295	          1.54936065	          6.68124259	          0.05380032	          0.00999999	          0.00999999	          0.02688201	          0.00999999	          0.01383365	          0.09370562	          0.00999999	          0.01491607	          0.00999999	          0.00999999	          0.20029163	          0.18899553	          0.00999999	          0.02527945	          0.15507225	          0.01167131	          0.06505248	          0.20641936	          0.07028896	          0.02944862	          0.03742801	          0.07905741	          0.01222576	          0.14236312	          0.00999999	          0.00999999	          0.40650836	
